<?xml version="1.0" encoding="UTF-8"?>
<svg width="40px" height="40px" viewBox="0 0 40 40" version="1.1" xmlns="http://www.w3.org/2000/svg" xmlns:xlink="http://www.w3.org/1999/xlink">
    <!-- Generator: Sketch 50.2 (55047) - http://www.bohemiancoding.com/sketch -->
    <title>email</title>
    <desc>Created with Sketch.</desc>
    <defs></defs>
    <g id="email" stroke="none" stroke-width="1" fill="none" fill-rule="evenodd">
        <g id="Group" transform="translate(2.000000, 6.000000)">
            <path d="M24.375,20.8333333 C24.375,20.9940417 24.3433125,21.1460417 24.2978125,21.2909167 L17.0625,13.7083333 L24.375,8.16666667 L24.375,20.8333333 L24.375,20.8333333 Z M2.88925,22.3739167 L10.22125,14.76125 L13,16.8077083 L15.6585,14.7485833 L23.11075,22.3739167 C22.9945625,22.4000417 3.0054375,22.4000417 2.88925,22.3739167 L2.88925,22.3739167 Z M1.625,20.8333333 L1.625,8.16666667 L8.9375,13.7083333 L1.7021875,21.2909167 C1.6566875,21.1460417 1.625,20.9940417 1.625,20.8333333 L1.625,20.8333333 Z M23.5625,6.58333333 L13,14.5 L2.4375,6.58333333 L23.5625,6.58333333 L23.5625,6.58333333 Z M22.75,5 L3.25,5 C1.4551875,5 0,6.417875 0,8.16666667 L0,20.8333333 C0,22.582125 1.4551875,24 3.25,24 L22.75,24 C24.5448125,24 26,22.582125 26,20.8333333 L26,8.16666667 C26,6.417875 24.5448125,5 22.75,5 L22.75,5 Z" id="Fill-186" fill="#37A1A8"></path>
            <path d="M34.5,0.5 L34.5,28.5178515" id="Line" stroke="#37A1A8" stroke-linecap="square"></path>
        </g>
    </g>
</svg>