<?xml version="1.0" encoding="UTF-8"?>
<svg width="40px" height="40px" viewBox="0 0 40 40" version="1.1" xmlns="http://www.w3.org/2000/svg" xmlns:xlink="http://www.w3.org/1999/xlink">
    <!-- Generator: Sketch 50.2 (55047) - http://www.bohemiancoding.com/sketch -->
    <title>password</title>
    <desc>Created with Sketch.</desc>
    <defs></defs>
    <g id="password" stroke="none" stroke-width="1" fill="none" fill-rule="evenodd">
        <g id="Group" transform="translate(35.000000, 6.000000)" stroke="#37A1A8" stroke-linecap="square">
            <path d="M1.5,0.5 L1.5,28.5178515" id="Line"></path>
        </g>
        <path d="M12,34 C7.582,34 4,30.418 4,26 C4,21.582 7.582,18 12,18 C16.268,18 20,21.732 20,26 C20,30.418 16.418,34 12,34 L12,34 Z M6,12 C6,8.687 8.687,6 12,6 C15.313,6 18,8.687 18,12 L18,18.014 C16.327,16.755 14.255,16 12,16 C9.746,16 7.673,16.755 6,18.014 L6,12 L6,12 Z M20,20.019 L20,12 C20,7.582 16.418,4 12,4 C7.582,4 4,7.582 4,12 L4,20.019 C2.75,21.688 2,23.754 2,26 C2,31.523 6.478,36 12,36 C17.522,36 22,31.523 22,26 C22,23.754 21.25,21.688 20,20.019 L20,20.019 Z M12,24 C11.447,24 11,24.448 11,25 L11,29 C11,29.553 11.447,30 12,30 C12.553,30 13,29.553 13,29 L13,25 C13,24.448 12.553,24 12,24 L12,24 Z" id="Fill-174" fill="#37A1A8"></path>
    </g>
</svg>